<?xml version="1.0" encoding="utf-8"?>
<!-- Generator: Adobe Illustrator 16.0.0, SVG Export Plug-In . SVG Version: 6.00 Build 0)  -->
<!DOCTYPE svg PUBLIC "-//W3C//DTD SVG 1.1//EN" "http://www.w3.org/Graphics/SVG/1.1/DTD/svg11.dtd">
<svg version="1.1" id="Layer_1" xmlns="http://www.w3.org/2000/svg" xmlns:xlink="http://www.w3.org/1999/xlink" x="0px" y="0px"
	 width="226.77px" height="212.6px" viewBox="0 0 226.77 212.6" enable-background="new 0 0 226.77 212.6" xml:space="preserve">
<g>
	<path d="M38.537,84.371c1.815,4.862,4.56,12.178,8.231,21.942c-0.333,0-0.831,0-1.494,0c-0.391-1.035-0.977-2.597-1.758-4.688
		c-2.227,0-5.547,0-9.961,0c-0.391,1.036-0.977,2.598-1.758,4.688c-0.333,0-0.831,0-1.494,0c1.66-4.434,4.15-11.084,7.471-19.951
		c0.06-0.155,0.137-0.37,0.234-0.645C38.127,85.407,38.303,84.957,38.537,84.371z M34.113,100.133c1.953,0,4.902,0,8.849,0
		c-0.996-2.617-2.472-6.543-4.424-11.777C37.541,90.973,36.066,94.899,34.113,100.133z"/>
	<path d="M69.094,98.404c0,0.763-0.107,1.494-0.322,2.197c-0.194,0.703-0.479,1.358-0.85,1.963
		c-0.703,1.133-1.642,2.041-2.812,2.726c-1.19,0.684-2.489,1.024-3.896,1.024c-1.915,0-4.775,0-8.584,0c0-1.835,0-4.58,0-8.231
		c0-3.047,0-7.617,0-13.711c0.586,0,0.889,0,0.908,0c0.019,0,0.508,0,1.465,0c0.233,0,0.517,0,0.85,0c0.332,0,0.723,0,1.172,0
		c1.056,0,1.953,0.371,2.695,1.112c0.742,0.763,1.113,1.67,1.113,2.726c0,0.43-0.069,0.84-0.205,1.229
		c-0.137,0.392-0.322,0.752-0.558,1.084h0.265h0.879c0.762,0,1.494,0.107,2.197,0.322c0.702,0.195,1.356,0.479,1.963,0.85
		c1.112,0.703,2.011,1.642,2.694,2.812C68.752,95.699,69.094,96.998,69.094,98.404z M54.123,90.523c0.645,0,1.601,0,2.871,0
		c0.194,0,0.381-0.01,0.557-0.028c0.429-0.099,0.81-0.312,1.143-0.646c0.449-0.469,0.675-1.024,0.675-1.67
		c0-0.645-0.226-1.191-0.675-1.641c-0.469-0.449-1.035-0.675-1.698-0.675h-1.437c-0.312,0-0.576,0-0.791,0h-0.645
		C54.123,86.901,54.123,88.454,54.123,90.523z M67.6,98.434c0-1.776-0.625-3.291-1.875-4.541c-1.25-1.229-2.754-1.846-4.512-1.846
		c-1.582,0-3.945,0-7.09,0c0,1.406,0,3.535,0,6.387c0,1.406,0,3.535,0,6.387c1.582,0,3.944,0,7.09,0
		c1.758,0,3.262-0.625,4.512-1.875C66.974,101.696,67.6,100.191,67.6,98.434z"/>
	<path d="M87.141,84.371c1.055,0,2.07,0.146,3.047,0.438c0.978,0.274,1.885,0.674,2.726,1.201c1.562,0.977,2.812,2.285,3.75,3.926
		c0.957,1.642,1.436,3.438,1.436,5.392c0,1.073-0.146,2.1-0.438,3.075c-0.274,0.978-0.675,1.886-1.201,2.726
		c-0.978,1.562-2.285,2.812-3.926,3.75c-1.642,0.957-3.438,1.436-5.392,1.436c-1.973,0-3.779-0.479-5.42-1.436
		c-1.641-0.938-2.949-2.188-3.926-3.75c-0.527-0.839-0.928-1.748-1.201-2.726c-0.293-0.977-0.439-2.002-0.439-3.075
		c0-1.056,0.146-2.07,0.439-3.048c0.273-0.977,0.674-1.885,1.201-2.725c0.977-1.562,2.285-2.812,3.926-3.75
		C83.361,84.85,85.167,84.371,87.141,84.371z M87.141,104.82c0.898,0,1.777-0.127,2.637-0.381c0.84-0.253,1.621-0.604,2.345-1.055
		c1.348-0.82,2.432-1.943,3.252-3.369c0.819-1.406,1.229-2.969,1.229-4.688c0-0.898-0.127-1.777-0.381-2.638
		c-0.234-0.839-0.576-1.621-1.025-2.344c-0.84-1.348-1.973-2.432-3.397-3.252c-1.406-0.82-2.959-1.23-4.658-1.23
		c-0.918,0-1.797,0.128-2.637,0.382c-0.86,0.233-1.651,0.575-2.373,1.024c-1.348,0.84-2.432,1.974-3.252,3.398
		c-0.82,1.406-1.23,2.959-1.23,4.658c0,0.918,0.127,1.797,0.381,2.637c0.234,0.859,0.576,1.65,1.025,2.373
		c0.839,1.348,1.963,2.432,3.369,3.252C83.849,104.41,85.422,104.82,87.141,104.82z"/>
	<path d="M118.898,84.371c0.332,0,0.839,0,1.523,0c0,0.293,0,0.547,0,0.762s0,0.41,0,0.586c0,0.703,0,1.182,0,1.436
		c0,0.255,0,0.898,0,1.935c0,0.333,0,0.723,0,1.172c0,0.45,0,0.977,0,1.582c0,0.743,0,1.622,0,2.637c0,1.036,0,2.237,0,3.604
		c0,0.801-0.107,1.562-0.322,2.285c-0.216,0.742-0.518,1.426-0.908,2.051c-0.723,1.172-1.698,2.108-2.93,2.812
		c-1.23,0.724-2.589,1.084-4.072,1.084s-2.842-0.36-4.071-1.084c-1.23-0.703-2.208-1.641-2.931-2.812
		c-0.391-0.625-0.692-1.309-0.908-2.051c-0.215-0.723-0.321-1.484-0.321-2.285c0-3.047,0-7.617,0-13.711c0.332,0,0.83,0,1.494,0
		c0,0.293,0,0.547,0,0.762s0,0.41,0,0.586c0,0.703,0,1.182,0,1.437c0,0.254,0,0.897,0,1.934c0,0.333,0,0.723,0,1.172
		c0,0.45,0,0.977,0,1.582c0,0.743,0,1.622,0,2.637c0,1.036,0,2.237,0,3.604c0,0.645,0.088,1.27,0.264,1.875
		c0.176,0.604,0.429,1.162,0.762,1.67c0.586,0.957,1.387,1.729,2.402,2.313c0.996,0.586,2.099,0.88,3.311,0.88
		c0.646,0,1.271-0.089,1.875-0.265s1.161-0.429,1.67-0.762c0.956-0.586,1.729-1.387,2.314-2.402
		c0.586-0.996,0.879-2.099,0.879-3.311C118.928,95.035,118.917,90.465,118.898,84.371z"/>
	<path d="M142.746,85.865c-1.25,0-3.74,0-7.472,0c0,3.419,0,10.235,0,20.449c-0.254,0-0.762,0-1.522,0c0-4.551,0-11.367,0-20.449
		c-1.66,0-4.15,0-7.472,0c0-0.331,0-0.829,0-1.493c1.66,0,4.15,0,7.472,0c0.352,0,0.858,0,1.522,0c1.66,0,4.15,0,7.472,0
		C142.746,84.704,142.746,85.202,142.746,85.865z"/>
	<path d="M171.633,84.371c0.332,0,0.84,0,1.522,0c0,0.293,0,0.547,0,0.762s0,0.41,0,0.586c0,0.703,0,1.182,0,1.436
		c0,0.255,0,0.898,0,1.935c0,0.333,0,0.723,0,1.172c0,0.45,0,0.977,0,1.582c0,0.743,0,1.622,0,2.637c0,1.036,0,2.237,0,3.604
		c0,0.801-0.106,1.562-0.321,2.285c-0.215,0.742-0.519,1.426-0.908,2.051c-0.723,1.172-1.699,2.108-2.93,2.812
		c-1.23,0.724-2.588,1.084-4.072,1.084s-2.842-0.36-4.072-1.084c-1.229-0.703-2.207-1.641-2.93-2.812
		c-0.392-0.625-0.693-1.309-0.908-2.051c-0.215-0.723-0.322-1.484-0.322-2.285c0-3.047,0-7.617,0-13.711c0.332,0,0.83,0,1.494,0
		c0,0.293,0,0.547,0,0.762s0,0.41,0,0.586c0,0.703,0,1.182,0,1.437c0,0.254,0,0.897,0,1.934c0,0.333,0,0.723,0,1.172
		c0,0.45,0,0.977,0,1.582c0,0.743,0,1.622,0,2.637c0,1.036,0,2.237,0,3.604c0,0.645,0.088,1.27,0.265,1.875
		c0.176,0.604,0.43,1.162,0.762,1.67c0.586,0.957,1.387,1.729,2.401,2.313c0.996,0.586,2.101,0.88,3.312,0.88
		c0.645,0,1.27-0.089,1.875-0.265c0.604-0.176,1.162-0.429,1.67-0.762c0.957-0.586,1.729-1.387,2.314-2.402
		c0.586-0.996,0.879-2.099,0.879-3.311C171.662,95.035,171.652,90.465,171.633,84.371z"/>
	<path d="M181.154,86.656c0.449-0.956,1.173-1.62,2.168-1.991c0.431-0.156,0.869-0.234,1.318-0.234c0.527,0,1.055,0.127,1.582,0.381
		l-0.469,1.025l-0.146,0.352c-0.586-0.272-1.182-0.303-1.787-0.088c-0.586,0.215-1.016,0.615-1.289,1.201
		c-0.272,0.567-0.303,1.153-0.088,1.758c0.216,0.605,0.615,1.045,1.201,1.318l1.523,0.645l0.526,0.205
		c0.685,0.333,1.3,0.732,1.847,1.201c0.547,0.488,1.016,1.036,1.405,1.641c0.724,1.095,1.144,2.325,1.261,3.691
		c0.02,0.234,0.028,0.459,0.028,0.674c0,1.113-0.243,2.208-0.731,3.281c-0.605,1.289-1.465,2.325-2.578,3.104
		c-1.113,0.781-2.324,1.25-3.633,1.406c-0.312,0.04-0.625,0.06-0.938,0.06c-0.41,0-0.819-0.039-1.229-0.117
		c-0.724-0.099-1.426-0.312-2.109-0.646l0.469-0.996l0.177-0.352c1.602,0.743,3.223,0.811,4.862,0.205
		c1.66-0.605,2.871-1.709,3.633-3.312c0.742-1.582,0.812-3.202,0.205-4.862c-0.604-1.66-1.709-2.861-3.311-3.604l-1.523-0.645
		L183,91.754c-0.957-0.449-1.611-1.172-1.963-2.168C180.666,88.59,180.705,87.613,181.154,86.656z"/>
</g>
<circle opacity="0.2" fill="#231F20" cx="87.127" cy="95.342" r="4.196"/>
</svg>
