<?xml version="1.0" encoding="utf-8"?>
<!-- Generator: Adobe Illustrator 16.0.0, SVG Export Plug-In . SVG Version: 6.00 Build 0)  -->
<!DOCTYPE svg PUBLIC "-//W3C//DTD SVG 1.1//EN" "http://www.w3.org/Graphics/SVG/1.1/DTD/svg11.dtd">
<svg version="1.1" id="Layer_1" xmlns="http://www.w3.org/2000/svg" xmlns:xlink="http://www.w3.org/1999/xlink" x="0px" y="0px"
	 width="226.77px" height="212.6px" viewBox="0 0 226.77 212.6" enable-background="new 0 0 226.77 212.6" xml:space="preserve">
<circle opacity="0.2" fill="#231F20" enable-background="new    " cx="79.885" cy="82.604" r="4.196"/>
<g>
	<path d="M31.047,72.3c1.816,4.863,4.56,12.178,8.232,21.943c-0.333,0-0.831,0-1.494,0c-0.391-1.035-0.977-2.597-1.758-4.688
		c-2.227,0-5.547,0-9.961,0c-0.391,1.036-0.977,2.598-1.758,4.688c-0.333,0-0.831,0-1.494,0c1.66-4.434,4.15-11.084,7.471-19.951
		c0.059-0.156,0.136-0.371,0.234-0.645C30.637,73.336,30.813,72.886,31.047,72.3z M26.623,88.062c1.953,0,4.902,0,8.848,0
		c-0.996-2.617-2.471-6.543-4.424-11.777C30.051,78.902,28.576,82.828,26.623,88.062z"/>
	<path d="M61.604,86.333c0,0.762-0.107,1.494-0.322,2.197c-0.195,0.703-0.479,1.358-0.85,1.963
		c-0.703,1.133-1.641,2.041-2.812,2.725c-1.191,0.684-2.49,1.025-3.896,1.025c-1.915,0-4.775,0-8.584,0c0-1.835,0-4.58,0-8.232
		c0-3.047,0-7.617,0-13.711c0.586,0,0.889,0,0.908,0c0.019,0,0.508,0,1.465,0c0.234,0,0.517,0,0.85,0c0.332,0,0.722,0,1.172,0
		c1.055,0,1.953,0.371,2.695,1.113c0.742,0.762,1.113,1.67,1.113,2.725c0,0.43-0.069,0.84-0.205,1.23
		C53,77.76,52.815,78.12,52.58,78.452h0.264h0.879c0.762,0,1.494,0.107,2.197,0.322c0.703,0.195,1.357,0.479,1.963,0.85
		c1.113,0.703,2.011,1.641,2.695,2.812C61.262,83.628,61.604,84.927,61.604,86.333z M46.633,78.452c0.645,0,1.601,0,2.871,0
		c0.195,0,0.381-0.01,0.557-0.029c0.429-0.098,0.81-0.312,1.143-0.645c0.449-0.469,0.674-1.025,0.674-1.67s-0.225-1.191-0.674-1.641
		c-0.469-0.449-1.036-0.674-1.699-0.674h-1.436c-0.312,0-0.576,0-0.791,0h-0.645C46.633,74.83,46.633,76.383,46.633,78.452z
		 M60.11,86.363c0-1.777-0.625-3.291-1.875-4.541c-1.25-1.23-2.754-1.846-4.512-1.846c-1.582,0-3.945,0-7.09,0
		c0,1.406,0,3.535,0,6.387c0,1.406,0,3.535,0,6.387c1.582,0,3.945,0,7.09,0c1.758,0,3.262-0.625,4.512-1.875
		C59.484,89.625,60.11,88.12,60.11,86.363z"/>
	<path d="M79.651,72.3c1.055,0,2.07,0.146,3.047,0.439c0.977,0.274,1.885,0.674,2.725,1.201c1.562,0.977,2.812,2.285,3.75,3.926
		c0.957,1.641,1.436,3.438,1.436,5.391c0,1.074-0.146,2.1-0.439,3.076c-0.274,0.977-0.674,1.885-1.201,2.725
		c-0.977,1.563-2.285,2.812-3.926,3.75c-1.641,0.957-3.438,1.436-5.391,1.436c-1.973,0-3.779-0.479-5.42-1.436
		c-1.641-0.938-2.949-2.187-3.926-3.75c-0.527-0.839-0.928-1.748-1.201-2.725c-0.293-0.977-0.439-2.002-0.439-3.076
		c0-1.055,0.146-2.07,0.439-3.047c0.273-0.977,0.674-1.885,1.201-2.725c0.977-1.562,2.285-2.812,3.926-3.75
		C75.871,72.779,77.677,72.3,79.651,72.3z M79.651,92.749c0.898,0,1.777-0.127,2.637-0.381c0.839-0.253,1.621-0.605,2.344-1.055
		c1.348-0.82,2.432-1.943,3.252-3.369c0.82-1.406,1.23-2.969,1.23-4.688c0-0.898-0.127-1.777-0.381-2.637
		c-0.234-0.839-0.576-1.621-1.025-2.344c-0.84-1.348-1.973-2.432-3.398-3.252c-1.406-0.82-2.959-1.23-4.658-1.23
		c-0.918,0-1.797,0.127-2.637,0.381c-0.86,0.234-1.651,0.576-2.373,1.025c-1.348,0.84-2.432,1.973-3.252,3.398
		c-0.82,1.406-1.23,2.959-1.23,4.658c0,0.918,0.127,1.797,0.381,2.637c0.234,0.86,0.576,1.651,1.025,2.373
		c0.839,1.348,1.963,2.432,3.369,3.252C76.359,92.339,77.932,92.749,79.651,92.749z"/>
	<path d="M111.408,72.3c0.332,0,0.839,0,1.523,0c0,0.293,0,0.547,0,0.762c0,0.215,0,0.41,0,0.586c0,0.703,0,1.182,0,1.436
		c0,0.254,0,0.898,0,1.934c0,0.333,0,0.723,0,1.172c0,0.45,0,0.977,0,1.582c0,0.743,0,1.622,0,2.637c0,1.036,0,2.237,0,3.604
		c0,0.801-0.107,1.563-0.322,2.285c-0.215,0.743-0.518,1.426-0.908,2.051c-0.723,1.172-1.699,2.109-2.93,2.812
		c-1.23,0.723-2.588,1.084-4.072,1.084c-1.484,0-2.842-0.361-4.072-1.084c-1.23-0.703-2.208-1.641-2.93-2.812
		c-0.391-0.625-0.693-1.308-0.908-2.051c-0.215-0.722-0.322-1.484-0.322-2.285c0-3.047,0-7.617,0-13.711c0.332,0,0.83,0,1.494,0
		c0,0.293,0,0.547,0,0.762c0,0.215,0,0.41,0,0.586c0,0.703,0,1.182,0,1.436c0,0.254,0,0.898,0,1.934c0,0.333,0,0.723,0,1.172
		c0,0.45,0,0.977,0,1.582c0,0.743,0,1.622,0,2.637c0,1.036,0,2.237,0,3.604c0,0.645,0.088,1.27,0.264,1.875
		c0.176,0.605,0.429,1.162,0.762,1.67c0.586,0.957,1.387,1.729,2.402,2.314c0.996,0.586,2.099,0.879,3.311,0.879
		c0.645,0,1.27-0.088,1.875-0.264c0.605-0.176,1.162-0.429,1.67-0.762c0.957-0.586,1.729-1.387,2.314-2.402
		c0.586-0.996,0.879-2.099,0.879-3.311C111.438,82.964,111.427,78.394,111.408,72.3z"/>
	<path d="M135.256,73.794c-1.25,0-3.74,0-7.471,0c0,3.418,0,10.235,0,20.449c-0.254,0-0.762,0-1.523,0c0-4.551,0-11.367,0-20.449
		c-1.66,0-4.15,0-7.471,0c0-0.332,0-0.83,0-1.494c1.66,0,4.15,0,7.471,0c0.352,0,0.859,0,1.523,0c1.66,0,4.15,0,7.471,0
		C135.256,72.633,135.256,73.131,135.256,73.794z"/>
	<path d="M160.158,85.718c1.836-2.227,5.498-6.699,10.986-13.418c0,3.652,0,10.967,0,21.943c-0.332,0-0.83,0-1.494,0
		c0-3.945,0-9.863,0-17.754c-2.109,2.578-5.273,6.445-9.492,11.602c-2.09-2.578-5.244-6.445-9.463-11.602c0,3.945,0,9.863,0,17.754
		c-0.332,0-0.83,0-1.494,0c0-4.882,0-12.197,0-21.943C151.643,75.288,155.295,79.761,160.158,85.718z"/>
	<path d="M193.44,72.3c0,0.664,0,1.162,0,1.494c-6.641,0-11.621,0-14.941,0c0,6.348,0,11.104,0,14.268c2.988,0,5.234,0,6.738,0
		c0,0.684,0,1.191,0,1.523c-2.988,0-5.234,0-6.738,0c0,1.406,0,2.461,0,3.164c6.641,0,11.631,0,14.971,0c0,0.664,0,1.162,0,1.494
		c-8.242,0-13.73,0-16.465,0c0-10.976,0-18.291,0-21.943C184.309,72.3,189.787,72.3,193.44,72.3z"/>
</g>
</svg>
