<?xml version="1.0" encoding="utf-8"?>
<!-- Generator: Adobe Illustrator 16.0.0, SVG Export Plug-In . SVG Version: 6.00 Build 0)  -->
<!DOCTYPE svg PUBLIC "-//W3C//DTD SVG 1.1//EN" "http://www.w3.org/Graphics/SVG/1.1/DTD/svg11.dtd">
<svg version="1.1" id="Layer_1" xmlns="http://www.w3.org/2000/svg" xmlns:xlink="http://www.w3.org/1999/xlink" x="0px" y="0px"
	 width="226.77px" height="212.6px" viewBox="0 0 226.77 212.6" enable-background="new 0 0 226.77 212.6" xml:space="preserve">
<g>
	<path d="M40.718,104.806c1.308,0,2.539-0.253,3.691-0.762c1.152-0.488,2.158-1.162,3.018-2.021l0.264,0.264l0.791,0.791
		c-0.996,0.996-2.158,1.787-3.486,2.373c-1.329,0.567-2.754,0.85-4.277,0.85c-1.055,0-2.07-0.146-3.047-0.439
		c-0.977-0.273-1.885-0.674-2.725-1.201c-1.563-0.977-2.812-2.285-3.75-3.926c-0.957-1.641-1.436-3.447-1.436-5.42
		c0-1.953,0.479-3.75,1.436-5.391c0.938-1.641,2.187-2.949,3.75-3.926c0.839-0.527,1.748-0.927,2.725-1.201
		c0.977-0.293,1.992-0.439,3.047-0.439c1.523,0,2.949,0.283,4.277,0.85c1.328,0.586,2.49,1.377,3.486,2.373l-0.264,0.264
		l-0.791,0.791c-0.86-0.859-1.865-1.542-3.018-2.051c-1.153-0.488-2.383-0.732-3.691-0.732c-1.699,0-3.252,0.41-4.658,1.23
		c-1.426,0.82-2.559,1.904-3.398,3.252c-0.45,0.723-0.791,1.504-1.025,2.344c-0.254,0.86-0.381,1.739-0.381,2.637
		c0,0.918,0.127,1.797,0.381,2.637c0.234,0.86,0.576,1.651,1.025,2.373c0.839,1.348,1.973,2.432,3.398,3.252
		C37.466,104.396,39.019,104.806,40.718,104.806z"/>
	<path d="M65.327,84.356c1.055,0,2.07,0.146,3.047,0.439c0.977,0.274,1.885,0.674,2.725,1.201c1.562,0.977,2.812,2.285,3.75,3.926
		c0.957,1.641,1.436,3.438,1.436,5.391c0,1.074-0.146,2.1-0.439,3.076c-0.274,0.977-0.674,1.885-1.201,2.725
		c-0.977,1.563-2.285,2.812-3.926,3.75c-1.641,0.957-3.438,1.436-5.391,1.436c-1.973,0-3.779-0.479-5.42-1.436
		c-1.641-0.938-2.949-2.187-3.926-3.75c-0.527-0.839-0.928-1.748-1.201-2.725c-0.293-0.977-0.439-2.002-0.439-3.076
		c0-1.055,0.146-2.07,0.439-3.047c0.273-0.977,0.674-1.885,1.201-2.725c0.977-1.562,2.285-2.812,3.926-3.75
		C61.548,84.835,63.354,84.356,65.327,84.356z M65.327,104.806c0.898,0,1.777-0.127,2.637-0.381
		c0.839-0.253,1.621-0.605,2.344-1.055c1.348-0.82,2.432-1.943,3.252-3.369c0.82-1.406,1.23-2.969,1.23-4.688
		c0-0.898-0.127-1.777-0.381-2.637c-0.234-0.839-0.576-1.621-1.025-2.344c-0.84-1.348-1.973-2.432-3.398-3.252
		c-1.406-0.82-2.959-1.23-4.658-1.23c-0.918,0-1.797,0.127-2.637,0.381c-0.86,0.234-1.651,0.576-2.373,1.025
		c-1.348,0.84-2.432,1.973-3.252,3.398c-0.82,1.406-1.23,2.959-1.23,4.658c0,0.918,0.127,1.797,0.381,2.637
		c0.234,0.86,0.576,1.651,1.025,2.373c0.839,1.348,1.963,2.432,3.369,3.252C62.036,104.396,63.608,104.806,65.327,104.806z"/>
	<path d="M97.114,102.081c0-2.949,0-8.857,0-17.725c0.253,0,0.751,0,1.494,0c0,3.652,0,10.967,0,21.943
		c-3.321-3.926-8.311-9.814-14.971-17.666c0,3.926,0,9.814,0,17.666c-0.333,0-0.831,0-1.494,0c0-4.882,0-12.197,0-21.943
		C85.464,88.302,90.454,94.21,97.114,102.081z"/>
	<path d="M120.933,85.851c-1.25,0-3.74,0-7.471,0c0,3.418,0,10.235,0,20.449c-0.254,0-0.762,0-1.523,0c0-4.551,0-11.367,0-20.449
		c-1.66,0-4.15,0-7.471,0c0-0.332,0-0.83,0-1.494c1.66,0,4.15,0,7.471,0c0.352,0,0.859,0,1.523,0c1.659,0,4.149,0,7.471,0
		C120.933,84.689,120.933,85.187,120.933,85.851z"/>
	<path d="M135.024,84.356c1.836,4.883,4.58,12.198,8.232,21.943c-0.332,0-0.83,0-1.494,0c-0.391-1.035-0.977-2.588-1.758-4.658
		c-2.207,0-5.527,0-9.961,0c-0.392,1.036-0.978,2.588-1.758,4.658c-0.333,0-0.831,0-1.494,0c1.659-4.434,4.15-11.084,7.471-19.951
		c0.059-0.136,0.146-0.352,0.264-0.645S134.81,84.962,135.024,84.356z M130.601,100.118c1.973,0,4.922,0,8.848,0
		c-0.977-2.617-2.451-6.543-4.424-11.777C134.048,90.958,132.573,94.884,130.601,100.118z"/>
	<path d="M160.103,104.806c1.309,0,2.529-0.253,3.662-0.762c1.152-0.488,2.158-1.162,3.018-2.021l0.264,0.264l0.791,0.791
		c-0.977,0.996-2.139,1.787-3.486,2.373c-1.328,0.567-2.744,0.85-4.248,0.85c-1.074,0-2.1-0.146-3.076-0.439
		c-0.977-0.273-1.885-0.674-2.725-1.201c-1.562-0.977-2.812-2.285-3.75-3.926c-0.957-1.641-1.436-3.447-1.436-5.42
		c0-1.953,0.479-3.75,1.436-5.391c0.938-1.641,2.188-2.949,3.75-3.926c0.84-0.527,1.748-0.927,2.725-1.201
		c0.977-0.293,2.002-0.439,3.076-0.439c1.504,0,2.92,0.283,4.248,0.85c1.348,0.586,2.51,1.377,3.486,2.373l-0.264,0.264
		l-0.791,0.791c-0.859-0.859-1.865-1.542-3.018-2.051c-1.133-0.488-2.354-0.732-3.662-0.732c-1.719,0-3.281,0.41-4.688,1.23
		c-1.426,0.82-2.549,1.904-3.369,3.252c-0.449,0.723-0.801,1.504-1.055,2.344c-0.254,0.86-0.381,1.739-0.381,2.637
		c0,0.918,0.127,1.797,0.381,2.637c0.254,0.86,0.605,1.651,1.055,2.373c0.82,1.348,1.943,2.432,3.369,3.252
		C156.821,104.396,158.384,104.806,160.103,104.806z"/>
	<path d="M190.161,85.851c-1.25,0-3.74,0-7.471,0c0,3.418,0,10.235,0,20.449c-0.254,0-0.762,0-1.523,0c0-4.551,0-11.367,0-20.449
		c-1.66,0-4.15,0-7.471,0c0-0.332,0-0.83,0-1.494c1.66,0,4.15,0,7.471,0c0.352,0,0.859,0,1.523,0c1.66,0,4.15,0,7.471,0
		C190.161,84.689,190.161,85.187,190.161,85.851z"/>
</g>
<circle opacity="0.2" cx="65.312" cy="95.328" r="4.196"/>
</svg>
